<svg xmlns="http://www.w3.org/2000/svg"  viewBox="0 0 512 512" width="80px" height="80px"><polygon fill="#6e83b7" points="482,482 482,462 432,462 432,482 80,482 80,462 30,462 30,482 10,482 10,502 502,502 502,482"/><rect width="50" height="10" x="432" y="462" fill="#466089"/><rect width="50" height="10" x="30" y="462" fill="#466089"/><rect width="492" height="335" x="10" y="127" fill="#6e83b7"/><rect width="295" height="452" x="108.5" y="68.5" fill="#80d6fb" transform="rotate(90 256 294.5)"/><rect width="10" height="452" x="251" y="211" fill="#46bee8" transform="rotate(90 256 437)"/><g><rect width="70" height="70" x="65" y="207.5" fill="#ffe352" transform="rotate(90 100 242.5)"/><rect width="70" height="70" x="169" y="207.5" fill="#98ca69" transform="rotate(90 204 242.5)"/><rect width="70" height="70" x="273" y="207.5" fill="#ffb0aa" transform="rotate(90 308 242.5)"/><rect width="70" height="70" x="377" y="207.5" fill="#edeff1" transform="rotate(90 412 242.5)"/><g><rect width="70" height="70" x="377" y="311.5" fill="#ffe352" transform="rotate(-90 412 346.5)"/><rect width="70" height="70" x="273" y="311.5" fill="#98ca69" transform="rotate(-90 308 346.5)"/><rect width="70" height="70" x="169" y="311.5" fill="#ffb0aa" transform="rotate(-90 204 346.5)"/><rect width="70" height="70" x="65" y="311.5" fill="#edeff1" transform="rotate(-90 100 346.5)"/></g></g><g><path fill="#80d6fb" d="M341.05,59.289C318.294,36.532,288.089,24,256,24s-62.294,12.532-85.05,35.289l-9.899-9.899 C186.451,23.989,220.171,10,256,10s69.549,13.989,94.95,39.389L341.05,59.289z"/><path fill="#80d6fb" d="M318.55,82.222C301.813,65.484,279.6,56.267,256,56.267s-45.813,9.217-62.55,25.955l-9.899-9.899 c19.381-19.381,45.11-30.055,72.45-30.055s53.069,10.674,72.45,30.055L318.55,82.222z"/><path fill="#80d6fb" d="M296.071,105.144C285.368,94.44,271.137,88.545,256,88.545s-29.368,5.895-40.071,16.598l-9.899-9.899 C219.377,81.896,237.124,74.545,256,74.545s36.623,7.351,49.971,20.699L296.071,105.144z"/></g></svg>