<svg xmlns="http://www.w3.org/2000/svg"  viewBox="0 0 48 48" width="80px" height="80px"><path fill="#e0dddc" d="M44,24c0,11-9,20-20,20S4,35,4,24S13,4,24,4S44,13,44,24z"/><path fill="#bfbfbf" d="M12 15.8H14V24.1H12z" transform="rotate(-71.561 13 20)"/><path fill="#bfbfbf" d="M23 8H25V16H23z"/><path fill="#bfbfbf" d="M12.4 32H21.6V34H12.4z" transform="rotate(-56.312 16.998 32.998)"/><path fill="#bfbfbf" d="M30 28.4H32V37.599999999999994H30z" transform="rotate(-33.688 31 33)"/><path fill="#bfbfbf" d="M27.8 19.5H39.3V21.5H27.8z" transform="rotate(-18.414 33.505 20.5)"/><path fill="#546e7a" d="M16,21l8-6l8,6l-3,9H19L16,21z M30,4.9C28.1,4.3,26.1,4,24,4s-4.1,0.3-6,0.9l-1.6,2.9L24,10l7-2 L30,4.9z M42,26l2-2c0-5-1.8-9.5-4.8-13L37,11.3v8.1L42,26z M32.2,34.8l-4.3,6.8l2.3,1.4c4.5-1.5,8.3-4.5,10.7-8.4l-0.8-2.9 L32.2,34.8z M11.1,19.4L11,11.3L8.8,11C5.8,14.5,4,19,4,24l2,2L11.1,19.4z M7.9,31.8l-0.8,2.9c2.5,3.9,6.2,6.9,10.7,8.4l2.2-1.6 l-4.1-6.6L7.9,31.8z"/></svg>